<svg xmlns="http://www.w3.org/2000/svg" viewBox="0 0 800 500" role="img" aria-label="Mobile design mockup placeholder">
  <rect width="800" height="500" fill="#FBF8F2"/>
  <!-- back phone (depth) -->
  <g opacity="0.45">
    <rect x="452" y="74" width="150" height="372" rx="26" fill="#FFFFFF" stroke="#1A1814" stroke-width="3"/>
    <rect x="470" y="150" width="114" height="14" rx="7" fill="#DDD5C8"/>
    <rect x="470" y="176" width="80" height="14" rx="7" fill="#DDD5C8"/>
    <rect x="470" y="214" width="114" height="70" rx="12" fill="#EFE7DB"/>
  </g>
  <!-- front phone -->
  <rect x="300" y="52" width="168" height="410" rx="30" fill="#FFFFFF" stroke="#1A1814" stroke-width="3"/>
  <rect x="352" y="66" width="64" height="12" rx="6" fill="#1A1814"/>
  <!-- header card -->
  <rect x="318" y="92" width="132" height="92" rx="14" fill="#E23B4B"/>
  <rect x="334" y="112" width="76" height="14" rx="7" fill="#FFFFFF"/>
  <rect x="334" y="134" width="54" height="10" rx="5" fill="#F6C7CC"/>
  <rect x="334" y="156" width="60" height="16" rx="8" fill="#FFFFFF"/>
  <!-- list rows -->
  <rect x="318" y="200" width="132" height="16" rx="6" fill="#DDD5C8"/>
  <rect x="318" y="224" width="104" height="16" rx="6" fill="#DDD5C8"/>
  <!-- tiles -->
  <rect x="318" y="256" width="62" height="62" rx="14" fill="#F1EADF"/>
  <rect x="388" y="256" width="62" height="62" rx="14" fill="#F1EADF"/>
  <rect x="318" y="330" width="132" height="16" rx="6" fill="#DDD5C8"/>
  <rect x="318" y="354" width="88" height="16" rx="6" fill="#DDD5C8"/>
  <!-- bottom nav -->
  <rect x="318" y="410" width="132" height="34" rx="12" fill="#F6F1E8"/>
  <circle cx="342" cy="427" r="7" fill="#E23B4B"/>
  <circle cx="384" cy="427" r="7" fill="#CFC6B5"/>
  <circle cx="426" cy="427" r="7" fill="#CFC6B5"/>
</svg>
